<svg id="visual" viewBox="0 0 960 300" width="960" height="300" xmlns="http://www.w3.org/2000/svg" xmlns:xlink="http://www.w3.org/1999/xlink" version="1.1"><path d="M0 126L17.8 133.3C35.7 140.7 71.3 155.3 106.8 164.5C142.3 173.7 177.7 177.3 213.2 174.5C248.7 171.7 284.3 162.3 320 152.5C355.7 142.7 391.3 132.3 426.8 126C462.3 119.7 497.7 117.3 533.2 113.5C568.7 109.7 604.3 104.3 640 114.3C675.7 124.3 711.3 149.7 746.8 156.3C782.3 163 817.7 151 853.2 150.2C888.7 149.3 924.3 159.7 942.2 164.8L960 170L960 301L942.2 301C924.3 301 888.7 301 853.2 301C817.7 301 782.3 301 746.8 301C711.3 301 675.7 301 640 301C604.3 301 568.7 301 533.2 301C497.7 301 462.3 301 426.8 301C391.3 301 355.7 301 320 301C284.3 301 248.7 301 213.2 301C177.7 301 142.3 301 106.8 301C71.3 301 35.7 301 17.8 301L0 301Z" fill="#ebebee"></path><path d="M0 158L17.8 160.5C35.7 163 71.3 168 106.8 173.3C142.3 178.7 177.7 184.3 213.2 188.3C248.7 192.3 284.3 194.7 320 184.7C355.7 174.7 391.3 152.3 426.8 141.3C462.3 130.3 497.7 130.7 533.2 131.7C568.7 132.7 604.3 134.3 640 141.3C675.7 148.3 711.3 160.7 746.8 165.3C782.3 170 817.7 167 853.2 164.3C888.7 161.7 924.3 159.3 942.2 158.2L960 157L960 301L942.2 301C924.3 301 888.7 301 853.2 301C817.7 301 782.3 301 746.8 301C711.3 301 675.7 301 640 301C604.3 301 568.7 301 533.2 301C497.7 301 462.3 301 426.8 301C391.3 301 355.7 301 320 301C284.3 301 248.7 301 213.2 301C177.7 301 142.3 301 106.8 301C71.3 301 35.7 301 17.8 301L0 301Z" fill="#c8cbec"></path><path d="M0 179L17.8 181.8C35.7 184.7 71.3 190.3 106.8 193C142.3 195.7 177.7 195.3 213.2 199.2C248.7 203 284.3 211 320 207.3C355.7 203.7 391.3 188.3 426.8 182C462.3 175.7 497.7 178.3 533.2 177.3C568.7 176.3 604.3 171.7 640 181.3C675.7 191 711.3 215 746.8 227.3C782.3 239.7 817.7 240.3 853.2 240.3C888.7 240.3 924.3 239.7 942.2 239.3L960 239L960 301L942.2 301C924.3 301 888.7 301 853.2 301C817.7 301 782.3 301 746.8 301C711.3 301 675.7 301 640 301C604.3 301 568.7 301 533.2 301C497.7 301 462.3 301 426.8 301C391.3 301 355.7 301 320 301C284.3 301 248.7 301 213.2 301C177.7 301 142.3 301 106.8 301C71.3 301 35.7 301 17.8 301L0 301Z" fill="#a0acea"></path><path d="M0 232L17.8 232.3C35.7 232.7 71.3 233.3 106.8 228.2C142.3 223 177.7 212 213.2 209.5C248.7 207 284.3 213 320 218.5C355.7 224 391.3 229 426.8 228.2C462.3 227.3 497.7 220.7 533.2 216C568.7 211.3 604.3 208.7 640 213.8C675.7 219 711.3 232 746.8 237C782.3 242 817.7 239 853.2 240.3C888.7 241.7 924.3 247.3 942.2 250.2L960 253L960 301L942.2 301C924.3 301 888.7 301 853.2 301C817.7 301 782.3 301 746.8 301C711.3 301 675.7 301 640 301C604.3 301 568.7 301 533.2 301C497.7 301 462.3 301 426.8 301C391.3 301 355.7 301 320 301C284.3 301 248.7 301 213.2 301C177.7 301 142.3 301 106.8 301C71.3 301 35.7 301 17.8 301L0 301Z" fill="#6f8fe8"></path><path d="M0 252L17.8 251.3C35.7 250.7 71.3 249.3 106.8 248.5C142.3 247.7 177.7 247.3 213.2 247.5C248.7 247.7 284.3 248.3 320 249.3C355.7 250.3 391.3 251.7 426.8 256.5C462.3 261.3 497.7 269.7 533.2 269.5C568.7 269.3 604.3 260.7 640 256.3C675.7 252 711.3 252 746.8 256.3C782.3 260.7 817.7 269.3 853.2 267.2C888.7 265 924.3 252 942.2 245.5L960 239L960 301L942.2 301C924.3 301 888.7 301 853.2 301C817.7 301 782.3 301 746.8 301C711.3 301 675.7 301 640 301C604.3 301 568.7 301 533.2 301C497.7 301 462.3 301 426.8 301C391.3 301 355.7 301 320 301C284.3 301 248.7 301 213.2 301C177.7 301 142.3 301 106.8 301C71.3 301 35.7 301 17.8 301L0 301Z" fill="#0575e6"></path></svg>