<svg id="visual" viewBox="0 0 900 600" width="900" height="600" xmlns="http://www.w3.org/2000/svg" xmlns:xlink="http://www.w3.org/1999/xlink" version="1.1"><g stroke-width="1" stroke-linejoin="bevel"><path d="M468 321L379 304L431 403Z" fill="#1aaafb" stroke="#1aaafb"></path><path d="M431 403L476 434L468 321Z" fill="#00b7fd" stroke="#00b7fd"></path><path d="M360 200L298 285L379 304Z" fill="#00ebc5" stroke="#00ebc5"></path><path d="M286 403L369 481L431 403Z" fill="#00ebc5" stroke="#00ebc5"></path><path d="M286 403L431 403L379 304Z" fill="#00c3fd" stroke="#00c3fd"></path><path d="M431 403L369 481L476 434Z" fill="#00f098" stroke="#00f098"></path><path d="M298 285L286 403L379 304Z" fill="#00c3fd" stroke="#00c3fd"></path><path d="M508 204L360 200L379 304Z" fill="#00ebc5" stroke="#00ebc5"></path><path d="M618 299L508 204L468 321Z" fill="#00cffb" stroke="#00cffb"></path><path d="M468 321L508 204L379 304Z" fill="#00e4e5" stroke="#00e4e5"></path><path d="M366 66L324 191L360 200Z" fill="#00b7fd" stroke="#00b7fd"></path><path d="M360 200L324 191L298 285Z" fill="#00f260" stroke="#00f260"></path><path d="M369 481L492 513L476 434Z" fill="#5b8dee" stroke="#5b8dee"></path><path d="M476 434L603 389L468 321Z" fill="#00b7fd" stroke="#00b7fd"></path><path d="M286 403L279 476L369 481Z" fill="#00ebc5" stroke="#00ebc5"></path><path d="M369 481L430 600L492 513Z" fill="#00cffb" stroke="#00cffb"></path><path d="M584 492L603 389L476 434Z" fill="#00ebc5" stroke="#00ebc5"></path><path d="M217 277L226 414L286 403Z" fill="#00cffb" stroke="#00cffb"></path><path d="M286 403L226 414L279 476Z" fill="#00c3fd" stroke="#00c3fd"></path><path d="M217 277L286 403L298 285Z" fill="#00b7fd" stroke="#00b7fd"></path><path d="M603 389L618 299L468 321Z" fill="#5b8dee" stroke="#5b8dee"></path><path d="M230 216L217 277L298 285Z" fill="#00e4e5" stroke="#00e4e5"></path><path d="M492 513L584 492L476 434Z" fill="#3f9cf6" stroke="#3f9cf6"></path><path d="M618 299L562 180L508 204Z" fill="#00e4e5" stroke="#00e4e5"></path><path d="M508 204L518 96L360 200Z" fill="#3f9cf6" stroke="#3f9cf6"></path><path d="M324 191L230 216L298 285Z" fill="#00c3fd" stroke="#00c3fd"></path><path d="M133 398L217 465L226 414Z" fill="#00f260" stroke="#00f260"></path><path d="M226 414L217 465L279 476Z" fill="#00b7fd" stroke="#00b7fd"></path><path d="M603 389L660 365L618 299Z" fill="#5b8dee" stroke="#5b8dee"></path><path d="M681 132L621 116L562 180Z" fill="#00cffb" stroke="#00cffb"></path><path d="M692 496L660 365L603 389Z" fill="#00b7fd" stroke="#00b7fd"></path><path d="M326 600L430 600L369 481Z" fill="#00b7fd" stroke="#00b7fd"></path><path d="M492 513L627 600L584 492Z" fill="#00daf8" stroke="#00daf8"></path><path d="M326 600L369 481L279 476Z" fill="#00c3fd" stroke="#00c3fd"></path><path d="M430 600L473 600L492 513Z" fill="#00ebc5" stroke="#00ebc5"></path><path d="M220 600L326 600L279 476Z" fill="#00b7fd" stroke="#00b7fd"></path><path d="M621 116L518 96L562 180Z" fill="#00f098" stroke="#00f098"></path><path d="M562 180L518 96L508 204Z" fill="#00f098" stroke="#00f098"></path><path d="M324 191L230 113L230 216Z" fill="#00b7fd" stroke="#00b7fd"></path><path d="M518 96L366 66L360 200Z" fill="#00f260" stroke="#00f260"></path><path d="M217 277L133 398L226 414Z" fill="#00b7fd" stroke="#00b7fd"></path><path d="M217 465L220 600L279 476Z" fill="#00daf8" stroke="#00daf8"></path><path d="M96 286L133 398L217 277Z" fill="#00c3fd" stroke="#00c3fd"></path><path d="M366 66L278 89L324 191Z" fill="#00daf8" stroke="#00daf8"></path><path d="M85 197L96 286L217 277Z" fill="#00ebc5" stroke="#00ebc5"></path><path d="M278 89L230 113L324 191Z" fill="#5b8dee" stroke="#5b8dee"></path><path d="M732 233L562 180L618 299Z" fill="#00c3fd" stroke="#00c3fd"></path><path d="M518 96L463 0L366 66Z" fill="#1aaafb" stroke="#1aaafb"></path><path d="M627 600L692 496L584 492Z" fill="#3f9cf6" stroke="#3f9cf6"></path><path d="M584 492L692 496L603 389Z" fill="#00f260" stroke="#00f260"></path><path d="M660 365L728 274L618 299Z" fill="#3f9cf6" stroke="#3f9cf6"></path><path d="M767 367L728 274L660 365Z" fill="#00f260" stroke="#00f260"></path><path d="M110 534L220 600L217 465Z" fill="#00ebc5" stroke="#00ebc5"></path><path d="M85 197L217 277L230 216Z" fill="#00b7fd" stroke="#00b7fd"></path><path d="M473 600L627 600L492 513Z" fill="#00f260" stroke="#00f260"></path><path d="M728 274L732 233L618 299Z" fill="#00f098" stroke="#00f098"></path><path d="M732 233L681 132L562 180Z" fill="#1aaafb" stroke="#1aaafb"></path><path d="M618 0L518 96L621 116Z" fill="#00ebc5" stroke="#00ebc5"></path><path d="M618 0L463 0L518 96Z" fill="#00e4e5" stroke="#00e4e5"></path><path d="M366 66L332 0L278 89Z" fill="#00daf8" stroke="#00daf8"></path><path d="M692 496L767 367L660 365Z" fill="#00f098" stroke="#00f098"></path><path d="M728 274L812 225L732 233Z" fill="#1aaafb" stroke="#1aaafb"></path><path d="M278 89L189 0L230 113Z" fill="#00f260" stroke="#00f260"></path><path d="M463 0L366 0L366 66Z" fill="#00ebc5" stroke="#00ebc5"></path><path d="M366 0L332 0L366 66Z" fill="#00daf8" stroke="#00daf8"></path><path d="M0 523L110 534L133 398Z" fill="#00f098" stroke="#00f098"></path><path d="M133 398L110 534L217 465Z" fill="#00daf8" stroke="#00daf8"></path><path d="M230 113L85 197L230 216Z" fill="#00c3fd" stroke="#00c3fd"></path><path d="M96 286L0 388L133 398Z" fill="#3f9cf6" stroke="#3f9cf6"></path><path d="M74 95L85 197L230 113Z" fill="#1aaafb" stroke="#1aaafb"></path><path d="M725 0L618 0L681 132Z" fill="#5b8dee" stroke="#5b8dee"></path><path d="M681 132L618 0L621 116Z" fill="#00e4e5" stroke="#00e4e5"></path><path d="M627 600L739 600L692 496Z" fill="#5b8dee" stroke="#5b8dee"></path><path d="M692 496L800 513L767 367Z" fill="#00cffb" stroke="#00cffb"></path><path d="M834 306L812 225L728 274Z" fill="#3f9cf6" stroke="#3f9cf6"></path><path d="M732 233L776 93L681 132Z" fill="#00cffb" stroke="#00cffb"></path><path d="M834 306L728 274L767 367Z" fill="#00cffb" stroke="#00cffb"></path><path d="M332 0L189 0L278 89Z" fill="#00f098" stroke="#00f098"></path><path d="M739 600L800 513L692 496Z" fill="#3f9cf6" stroke="#3f9cf6"></path><path d="M0 226L96 286L85 197Z" fill="#00cffb" stroke="#00cffb"></path><path d="M0 226L0 319L96 286Z" fill="#1aaafb" stroke="#1aaafb"></path><path d="M0 319L0 388L96 286Z" fill="#00c3fd" stroke="#00c3fd"></path><path d="M900 401L834 306L767 367Z" fill="#00daf8" stroke="#00daf8"></path><path d="M124 0L74 95L230 113Z" fill="#5b8dee" stroke="#5b8dee"></path><path d="M739 600L765 600L800 513Z" fill="#00f098" stroke="#00f098"></path><path d="M0 523L67 600L110 534Z" fill="#00ebc5" stroke="#00ebc5"></path><path d="M110 534L67 600L220 600Z" fill="#00b7fd" stroke="#00b7fd"></path><path d="M74 95L0 226L85 197Z" fill="#3f9cf6" stroke="#3f9cf6"></path><path d="M812 225L776 93L732 233Z" fill="#00f098" stroke="#00f098"></path><path d="M0 388L0 523L133 398Z" fill="#00f260" stroke="#00f260"></path><path d="M189 0L124 0L230 113Z" fill="#00b7fd" stroke="#00b7fd"></path><path d="M74 95L0 68L0 226Z" fill="#00b7fd" stroke="#00b7fd"></path><path d="M776 93L725 0L681 132Z" fill="#3f9cf6" stroke="#3f9cf6"></path><path d="M800 513L900 401L767 367Z" fill="#00e4e5" stroke="#00e4e5"></path><path d="M834 306L900 263L812 225Z" fill="#00cffb" stroke="#00cffb"></path><path d="M812 225L900 105L776 93Z" fill="#00cffb" stroke="#00cffb"></path><path d="M900 478L900 401L800 513Z" fill="#00b7fd" stroke="#00b7fd"></path><path d="M0 523L0 600L67 600Z" fill="#00b7fd" stroke="#00b7fd"></path><path d="M900 0L761 0L776 93Z" fill="#00daf8" stroke="#00daf8"></path><path d="M776 93L761 0L725 0Z" fill="#00cffb" stroke="#00cffb"></path><path d="M900 401L900 263L834 306Z" fill="#00f260" stroke="#00f260"></path><path d="M900 600L900 478L800 513Z" fill="#3f9cf6" stroke="#3f9cf6"></path><path d="M0 0L0 68L74 95Z" fill="#00c3fd" stroke="#00c3fd"></path><path d="M900 263L900 205L812 225Z" fill="#5b8dee" stroke="#5b8dee"></path><path d="M900 205L900 105L812 225Z" fill="#00b7fd" stroke="#00b7fd"></path><path d="M124 0L0 0L74 95Z" fill="#00b7fd" stroke="#00b7fd"></path><path d="M765 600L900 600L800 513Z" fill="#1aaafb" stroke="#1aaafb"></path><path d="M900 105L900 0L776 93Z" fill="#00b7fd" stroke="#00b7fd"></path></g></svg>